<svg width="227" height="51" viewBox="0 0 227 51" fill="none" xmlns="http://www.w3.org/2000/svg">
<rect width="50.2643" height="50.2643" rx="5" fill="#FF693A"/>
<path d="M28.0436 42.9677V25.9843H33.8062L34.6627 19.3348H28.0436V15.0993C28.0436 13.1805 28.5813 11.8667 31.3511 11.8667H34.8607V5.93832C33.1531 5.75637 31.4366 5.66851 29.7192 5.67516C24.6257 5.67516 21.1286 8.7668 21.1286 14.4424V19.3223H15.4036V25.9719H21.1411V42.9677H28.0436Z" fill="white"/>
<rect x="88.3679" width="50.2643" height="50.2643" rx="5" fill="#FF693A"/>
<path d="M113.901 16.6154C109.412 16.6154 105.79 20.2381 105.79 24.7269C105.79 29.2157 109.412 32.8384 113.901 32.8384C118.39 32.8384 122.012 29.2157 122.012 24.7269C122.012 20.2381 118.39 16.6154 113.901 16.6154ZM113.901 29.9988C110.998 29.9988 108.629 27.6298 108.629 24.7269C108.629 21.824 110.998 19.455 113.901 19.455C116.804 19.455 119.173 21.824 119.173 24.7269C119.173 27.6298 116.804 29.9988 113.901 29.9988ZM122.345 14.3927C121.297 14.3927 120.45 15.2391 120.45 16.2871C120.45 17.3352 121.297 18.1815 122.345 18.1815C123.393 18.1815 124.239 17.3391 124.239 16.2871C124.239 16.0383 124.191 15.7918 124.095 15.5618C124 15.3318 123.861 15.1229 123.685 14.9469C123.509 14.7709 123.3 14.6314 123.07 14.5363C122.84 14.4412 122.594 14.3924 122.345 14.3927ZM129.713 24.7269C129.713 22.5438 129.732 20.3805 129.61 18.2013C129.487 15.6702 128.91 13.4238 127.059 11.5729C125.204 9.71804 122.962 9.14457 120.431 9.02197C118.247 8.89937 116.084 8.91915 113.905 8.91915C111.722 8.91915 109.559 8.89937 107.38 9.02197C104.849 9.14457 102.602 9.72199 100.751 11.5729C98.8965 13.4277 98.323 15.6702 98.2004 18.2013C98.0778 20.3844 98.0976 22.5477 98.0976 24.7269C98.0976 26.906 98.0778 29.0733 98.2004 31.2525C98.323 33.7836 98.9004 36.03 100.751 37.8809C102.606 39.7358 104.849 40.3092 107.38 40.4318C109.563 40.5544 111.726 40.5346 113.905 40.5346C116.088 40.5346 118.251 40.5544 120.431 40.4318C122.962 40.3092 125.208 39.7318 127.059 37.8809C128.914 36.0261 129.487 33.7836 129.61 31.2525C129.736 29.0733 129.713 26.91 129.713 24.7269ZM126.232 34.0526C125.944 34.7724 125.596 35.3102 125.038 35.8639C124.48 36.4215 123.946 36.7696 123.227 37.0583C121.146 37.8849 116.207 37.699 113.901 37.699C111.595 37.699 106.652 37.8849 104.572 37.0622C103.852 36.7735 103.314 36.4255 102.76 35.8679C102.203 35.3102 101.855 34.7763 101.566 34.0565C100.743 31.9723 100.929 27.0326 100.929 24.7269C100.929 22.4212 100.743 17.4776 101.566 15.3973C101.855 14.6775 102.203 14.1396 102.76 13.5859C103.318 13.0322 103.852 12.6803 104.572 12.3916C106.652 11.5689 111.595 11.7548 113.901 11.7548C116.207 11.7548 121.15 11.5689 123.231 12.3916C123.95 12.6803 124.488 13.0283 125.042 13.5859C125.6 14.1436 125.948 14.6775 126.236 15.3973C127.059 17.4776 126.873 22.4212 126.873 24.7269C126.873 27.0326 127.059 31.9723 126.232 34.0526Z" fill="white"/>
<rect x="176.736" width="50.2643" height="50.2643" rx="5" fill="#FF693A"/>
<path d="M195.539 38.9139C208.388 38.9139 215.418 28.3064 215.418 19.1238C215.418 18.827 215.418 18.5259 215.405 18.2291C216.773 17.2421 217.954 16.0201 218.893 14.6205C217.614 15.182 216.26 15.5521 214.873 15.7187C216.334 14.8487 217.428 13.4797 217.952 11.8663C216.579 12.6765 215.077 13.2452 213.511 13.5476C212.458 12.4303 211.064 11.6901 209.546 11.4417C208.028 11.1933 206.47 11.4506 205.114 12.1736C203.757 12.8966 202.678 14.0451 202.043 15.4411C201.408 16.8371 201.253 18.4028 201.602 19.8956C198.824 19.7568 196.107 19.0379 193.626 17.7854C191.145 16.5329 188.956 14.7749 187.201 12.6253C186.31 14.1584 186.038 15.9719 186.44 17.6975C186.843 19.423 187.889 20.9313 189.367 21.9161C188.26 21.8786 187.176 21.5823 186.205 21.0511V21.1465C186.207 22.7525 186.765 24.3086 187.786 25.5518C188.806 26.7949 190.226 27.6489 191.806 27.9693C191.206 28.1339 190.587 28.2159 189.965 28.2132C189.527 28.2145 189.089 28.174 188.659 28.0923C189.105 29.4748 189.974 30.6836 191.145 31.5493C192.315 32.415 193.728 32.8943 195.185 32.92C192.71 34.8575 189.651 35.9083 186.503 35.9032C185.948 35.9055 185.394 35.8737 184.843 35.8078C188.038 37.8374 191.749 38.9151 195.539 38.9139Z" fill="white"/>
</svg>
